<svg width="388" height="36" viewBox="0 0 388 36" fill="none" xmlns="http://www.w3.org/2000/svg">
<path d="M0.814063 34.28L3.69406 33.56V2.84L0.814063 2.12V1.4H26.4941V10.04H25.0541C24.4461 9.56 23.9181 8.952 23.4701 8.216C22.4461 6.488 21.9341 4.616 21.9341 2.6H11.6141V17.72H17.1341C17.3581 16.504 17.7741 15.368 18.3821 14.312C18.6381 13.832 18.9421 13.368 19.2941 12.92H20.7341V23.72H19.2941C18.9421 23.272 18.6381 22.808 18.3821 22.328C17.7741 21.272 17.3581 20.136 17.1341 18.92H11.6141V33.56L14.4941 34.28V35H0.814063V34.28ZM23.3759 34.28L27.2159 32.84L40.4159 0.919998H41.8559L55.5359 33.56L57.9359 34.28V35H52.1759C50.5119 35 49.1519 34.632 48.0959 33.896C47.0399 33.128 46.2559 32.136 45.7439 30.92L43.2959 25.16H31.8239L28.6559 32.84L32.2559 34.28V35H23.3759V34.28ZM32.3039 23.96H42.8159L37.5359 11.336L32.3039 23.96ZM62.5016 34.28L65.3816 33.56V2.6H59.8616C59.8616 4.552 59.3336 6.424 58.2776 8.216C57.8296 8.952 57.3176 9.56 56.7416 10.04H55.3016V1.4H83.3816V10.04H81.9416C81.3336 9.56 80.8056 8.952 80.3576 8.216C79.3336 6.488 78.8216 4.616 78.8216 2.6H73.3016V33.56L76.1816 34.28V35H62.5016V34.28ZM86.9703 35V34.28L89.8503 33.56V2.84L86.9703 2.12V1.4H100.65V2.12L97.7703 2.84V33.56L100.65 34.28V35H86.9703ZM109.29 7.4V32.84L113.13 34.28V35H104.01V34.28L107.85 32.84V2.84L104.97 2.12V1.4H110.97C112.634 1.4 113.946 1.752 114.906 2.456C115.898 3.128 116.746 4.136 117.45 5.48L127.914 25.496L135.93 5.48C136.474 4.072 137.21 3.048 138.138 2.408C139.066 1.736 140.49 1.4 142.41 1.4H147.45V2.12L144.57 2.84V33.56L147.45 34.28V35H133.77V34.28L136.65 33.56V7.4L125.37 35.48H123.93L109.29 7.4ZM147.454 34.28L151.294 32.84L164.494 0.919998H165.934L179.614 33.56L182.014 34.28V35H176.254C174.59 35 173.23 34.632 172.174 33.896C171.118 33.128 170.334 32.136 169.822 30.92L167.374 25.16H155.902L152.734 32.84L156.334 34.28V35H147.454V34.28ZM156.382 23.96H166.894L161.614 11.336L156.382 23.96ZM203.372 35.72C200.428 35.72 198.204 35.208 196.7 34.184C195.228 33.16 194.492 31.912 194.492 30.44C194.492 29.352 194.812 28.488 195.452 27.848C196.124 27.176 197.004 26.84 198.092 26.84C198.348 26.84 198.604 26.872 198.86 26.936C199.116 26.968 199.292 26.984 199.388 26.984L200.012 27.08V34.28C200.236 34.408 200.46 34.488 200.684 34.52C201.228 34.68 201.804 34.76 202.412 34.76C206.252 34.76 208.172 31.64 208.172 25.4V2.84L205.292 2.12V1.4H218.972V2.12L216.092 2.84V25.4C216.092 28.728 215.052 31.288 212.972 33.08C210.892 34.84 207.692 35.72 203.372 35.72ZM217.532 34.28L221.372 32.84L234.572 0.919998H236.012L249.692 33.56L252.092 34.28V35H246.332C244.668 35 243.308 34.632 242.252 33.896C241.196 33.128 240.412 32.136 239.9 30.92L237.452 25.16H225.98L222.812 32.84L226.412 34.28V35H217.532V34.28ZM226.46 23.96H236.972L231.692 11.336L226.46 23.96ZM257.837 9.56V32.84L261.677 34.28V35H252.557V34.28L256.397 32.84V3.08L253.037 2.12V1.4H258.077C259.773 1.4 261.101 1.704 262.061 2.312C263.021 2.92 263.933 3.736 264.797 4.76L280.157 22.76V3.56L276.317 2.12V1.4H285.437V2.12L281.597 3.56V35.72H280.157L257.837 9.56ZM292.9 9.56V32.84L296.74 34.28V35H287.62V34.28L291.46 32.84V3.08L288.1 2.12V1.4H293.14C294.836 1.4 296.164 1.704 297.124 2.312C298.084 2.92 298.996 3.736 299.86 4.76L315.22 22.76V3.56L311.38 2.12V1.4H320.5V2.12L316.66 3.56V35.72H315.22L292.9 9.56ZM319.298 34.28L323.138 32.84L336.338 0.919998H337.778L351.458 33.56L353.858 34.28V35H348.098C346.434 35 345.074 34.632 344.018 33.896C342.962 33.128 342.178 32.136 341.666 30.92L339.218 25.16H327.746L324.578 32.84L328.178 34.28V35H319.298V34.28ZM328.226 23.96H338.738L333.458 11.336L328.226 23.96ZM355.283 35V34.28L358.163 33.56V2.84L355.283 2.12V1.4H368.963V2.12L366.083 2.84V17.72H376.403V2.84L373.523 2.12V1.4H387.203V2.12L384.323 2.84V33.56L387.203 34.28V35H373.523V34.28L376.403 33.56V18.92H366.083V33.56L368.963 34.28V35H355.283Z" fill="black"/>
</svg>
