<svg width="19" height="252" viewBox="0 0 19 252" fill="none" xmlns="http://www.w3.org/2000/svg">
<path d="M11.88 247.863L18 247.863L18 251.391L0.816039 251.391L0.816038 243.807C0.816038 241.887 1.33604 240.455 2.37604 239.511C3.28804 238.679 4.54404 238.263 6.14404 238.263C8.01604 238.263 9.47204 238.791 10.512 239.847C11.424 240.775 11.88 241.975 11.88 243.447L11.88 247.863ZM8.92804 247.863L8.92804 244.575C8.92804 242.719 8.07204 241.791 6.36004 241.791C4.63204 241.791 3.76804 242.719 3.76804 244.575L3.76804 247.863L8.92804 247.863ZM0.552037 228.177C0.552037 225.745 1.32804 223.793 2.88004 222.321C4.56004 220.721 6.73604 219.921 9.40804 219.921C12.048 219.921 14.224 220.721 15.936 222.321C17.488 223.777 18.264 225.729 18.264 228.177C18.264 230.641 17.488 232.601 15.936 234.057C14.224 235.657 12.048 236.457 9.40804 236.457C6.76804 236.457 4.59204 235.657 2.88004 234.057C1.32804 232.585 0.552037 230.625 0.552037 228.177ZM3.57604 228.177C3.57604 229.713 4.17604 230.921 5.37604 231.801C6.41604 232.553 7.76004 232.929 9.40804 232.929C11.296 232.929 12.776 232.441 13.848 231.465C14.776 230.617 15.24 229.521 15.24 228.177C15.24 226.641 14.64 225.441 13.44 224.577C12.4 223.825 11.056 223.449 9.40804 223.449C7.52004 223.449 6.04004 223.937 4.96804 224.913C4.04004 225.761 3.57604 226.849 3.57604 228.177ZM11.184 213.692L18 213.692L18 217.22L0.816037 217.22L0.816037 208.004C0.816037 206.548 1.20804 205.436 1.99204 204.668C2.87204 203.804 4.03204 203.372 5.47204 203.372C7.55204 203.372 8.96804 204.348 9.72004 206.3C10.152 205.196 10.688 204.524 11.328 204.284C11.792 204.108 13.336 203.98 15.96 203.9C16.616 203.884 17.08 203.636 17.352 203.156L18 203.156L18 206.948C17.344 207.3 16.376 207.476 15.096 207.476C14.776 207.476 14.384 207.468 13.92 207.452C13.6 207.452 13.368 207.452 13.224 207.452C11.864 207.452 11.184 208.18 11.184 209.636L11.184 213.692ZM8.23204 213.692L8.23204 209.42C8.23204 208.524 8.08804 207.9 7.80004 207.548C7.43204 207.116 6.82404 206.9 5.97604 206.9C5.16004 206.9 4.57604 207.116 4.22404 207.548C3.92004 207.916 3.76804 208.54 3.76804 209.42L3.76804 213.692L8.23204 213.692ZM3.76804 192.906L18 192.906L18 196.434L3.76804 196.434L3.76804 201.666L0.816037 201.666L0.816036 187.914L3.76804 187.914L3.76804 192.906ZM10.608 182.262L18 182.262L18 185.79L0.816036 185.79L0.816035 173.718L3.76803 173.718L3.76803 182.262L7.65604 182.262L7.65604 174.726L10.608 174.726L10.608 182.262ZM0.552034 163.888C0.552034 161.456 1.32803 159.504 2.88003 158.032C4.56003 156.432 6.73603 155.632 9.40803 155.632C12.048 155.632 14.224 156.432 15.936 158.032C17.488 159.488 18.264 161.44 18.264 163.888C18.264 166.352 17.488 168.312 15.936 169.768C14.224 171.368 12.048 172.168 9.40804 172.168C6.76804 172.168 4.59204 171.368 2.88003 169.768C1.32803 168.296 0.552034 166.336 0.552034 163.888ZM3.57604 163.888C3.57604 165.424 4.17604 166.632 5.37603 167.512C6.41603 168.264 7.76004 168.64 9.40804 168.64C11.296 168.64 12.776 168.152 13.848 167.176C14.776 166.328 15.24 165.232 15.24 163.888C15.24 162.352 14.64 161.152 13.44 160.288C12.4 159.536 11.056 159.16 9.40803 159.16C7.52003 159.16 6.04003 159.648 4.96803 160.624C4.04003 161.472 3.57604 162.56 3.57604 163.888ZM0.816034 149.402L15.048 149.402L15.048 141.17L18 141.17L18 152.93L0.816034 152.93L0.816034 149.402ZM0.816034 135.504L18 135.504L18 139.032L0.816034 139.032L0.816034 135.504ZM0.552032 124.513C0.552032 122.081 1.32803 120.129 2.88003 118.657C4.56003 117.057 6.73603 116.257 9.40803 116.257C12.048 116.257 14.224 117.057 15.936 118.657C17.488 120.113 18.264 122.065 18.264 124.513C18.264 126.977 17.488 128.937 15.936 130.393C14.224 131.993 12.048 132.793 9.40803 132.793C6.76803 132.793 4.59203 131.993 2.88003 130.393C1.32803 128.921 0.552032 126.961 0.552032 124.513ZM3.57603 124.513C3.57603 126.049 4.17603 127.257 5.37603 128.137C6.41603 128.889 7.76003 129.265 9.40803 129.265C11.296 129.265 12.776 128.777 13.848 127.801C14.776 126.953 15.24 125.857 15.24 124.513C15.24 122.977 14.64 121.777 13.44 120.913C12.4 120.161 11.056 119.785 9.40803 119.785C7.52003 119.785 6.04003 120.273 4.96803 121.249C4.04003 122.097 3.57603 123.185 3.57603 124.513ZM14.544 94.735L14.544 101.167L18 102.319L18 105.919L0.816032 99.823L0.816032 95.911L18 89.959L18 93.607L14.544 94.735ZM11.592 95.695L4.87203 97.927L11.592 100.183L11.592 95.695ZM11.184 84.1993L18 84.1993L18 87.7273L0.816032 87.7273L0.816031 78.5113C0.816031 77.0553 1.20803 75.9433 1.99203 75.1753C2.87203 74.3113 4.03203 73.8793 5.47203 73.8793C7.55203 73.8793 8.96803 74.8553 9.72003 76.8073C10.152 75.7033 10.688 75.0313 11.328 74.7913C11.792 74.6153 13.336 74.4873 15.96 74.4073C16.616 74.3913 17.08 74.1433 17.352 73.6633L18 73.6633L18 77.4553C17.344 77.8073 16.376 77.9833 15.096 77.9833C14.776 77.9833 14.384 77.9753 13.92 77.9593C13.6 77.9593 13.368 77.9593 13.224 77.9593C11.864 77.9593 11.184 78.6873 11.184 80.1433L11.184 84.1993ZM8.23203 84.1993L8.23203 79.9273C8.23203 79.0313 8.08803 78.4073 7.80003 78.0553C7.43203 77.6233 6.82403 77.4073 5.97603 77.4073C5.16003 77.4073 4.57603 77.6233 4.22403 78.0553C3.92003 78.4233 3.76803 79.0473 3.76803 79.9273L3.76803 84.1993L8.23203 84.1993ZM6.55203 56.526L6.55203 59.886C4.56803 60.35 3.57603 61.574 3.57603 63.558C3.57603 65.046 4.16803 66.19 5.35203 66.99C6.39203 67.678 7.77603 68.022 9.50403 68.022C11.456 68.022 12.944 67.59 13.968 66.726C14.848 65.974 15.288 64.958 15.288 63.678C15.288 62.574 15 61.694 14.424 61.038C13.848 60.382 13.024 59.998 11.952 59.886L11.952 56.454C14.032 56.566 15.64 57.366 16.776 58.854C17.768 60.134 18.264 61.774 18.264 63.774C18.264 66.334 17.368 68.318 15.576 69.726C14.024 70.942 11.976 71.55 9.43203 71.55C6.52003 71.55 4.26403 70.75 2.66403 69.15C1.25603 67.758 0.55203 65.942 0.55203 63.702C0.552029 61.046 1.44003 59.038 3.21603 57.678C4.09603 57.006 5.20803 56.622 6.55203 56.526ZM10.2 43.4224L10.2 50.2384L18 50.2384L18 53.7664L0.81603 53.7664L0.81603 50.2384L7.24803 50.2384L7.24803 43.4464L0.81603 43.4464L0.816029 39.8944L18 39.8944L18 43.4224L10.2 43.4224ZM0.816029 32.8478L18 32.8478L18 36.3758L0.816029 36.3758L0.816029 32.8478ZM18 21.8091L18 24.7851L0.816029 30.5931L0.816029 27.0411L13.776 23.2251L0.816029 19.4811L0.816028 15.9051L18 21.8091ZM10.608 10.1368L15.048 10.1368L15.048 0.824843L18 0.824842L18 13.6648L0.816028 13.6648L0.816028 1.25684L3.76803 1.25684L3.76803 10.1368L7.65603 10.1368L7.65603 1.90484L10.608 1.90484L10.608 10.1368Z" fill="black"/>
</svg>
